<svg width="109" height="56" fill="none" xmlns="http://www.w3.org/2000/svg"><path d="M.5 16.112h3.184v9.856h12.537v-9.856h3.185v22.996H16.22V28.75H3.684v10.358H.5V16.112zM35.083 39.51c-3.643 0-6.47-.994-8.481-2.983-1.989-2.011-2.983-4.984-2.983-8.917s.994-6.894 2.983-8.883c2.011-2.011 4.838-3.017 8.48-3.017 3.666 0 6.493 1.006 8.482 3.017 2.01 1.989 3.017 4.95 3.017 8.883 0 3.91-1.006 6.872-3.017 8.883-1.99 2.011-4.816 3.017-8.481 3.017zm0-2.715c2.66 0 4.693-.715 6.1-2.145 1.409-1.453 2.112-3.755 2.112-6.906v-.134c-.022-3.196-.737-5.52-2.145-6.972-1.408-1.475-3.43-2.213-6.067-2.213-2.615 0-4.626.738-6.034 2.213-1.408 1.452-2.123 3.776-2.145 6.972v.134c0 3.151.704 5.453 2.111 6.906 1.408 1.43 3.43 2.145 6.068 2.145zm21.699-17.9H48.87v-2.783h19.006v2.783h-7.911v20.213h-3.184V18.895zm14.492-2.783h17.699v2.783H74.458v7.073h13.04v2.782h-13.04v7.576h14.716v2.782h-17.9V16.112zm22.358 0h3.184v20.214h11.8v2.782H93.632V16.112z" fill="#18191B"/><path d="M6.023 53.322c0 .843-.305 1.5-.916 1.97-.611.472-1.44.708-2.488.708C1.484 56 .61 55.854 0 55.561v-1.073c.393.165.82.296 1.283.392.463.096.921.144 1.375.144.742 0 1.3-.14 1.676-.419.376-.283.563-.676.563-1.178 0-.332-.067-.602-.203-.812-.13-.214-.353-.41-.668-.59-.31-.178-.783-.381-1.42-.608-.89-.319-1.528-.696-1.912-1.133-.38-.436-.57-1.006-.57-1.709 0-.737.278-1.324.832-1.76.554-.437 1.287-.655 2.2-.655.951 0 1.826.174 2.625.523l-.347.97c-.79-.332-1.558-.498-2.305-.498-.589 0-1.05.126-1.38.38-.333.253-.499.604-.499 1.054 0 .331.062.604.184.818.122.21.327.404.615.583.293.174.738.368 1.336.582 1.004.358 1.693.742 2.069 1.153.38.41.57.942.57 1.597zm8.927 2.547h-1.114v-8.583h-3.03v-.989h7.175v.989h-3.032v8.583zm14.517 0l-1.192-3.044H24.44l-1.179 3.044h-1.126l3.784-9.611h.937l3.764 9.611h-1.152zm-1.539-4.046l-1.113-2.966a15.911 15.911 0 01-.445-1.381c-.096.419-.233.88-.412 1.381l-1.126 2.966h3.096zm13.497-5.526h1.198l-3.45 9.572h-1.1l-3.431-9.572h1.178l2.2 6.194c.253.711.454 1.403.602 2.075.157-.707.363-1.412.616-2.115l2.187-6.154zm7.655 5.591v3.981h-1.112v-9.572h2.625c1.174 0 2.04.225 2.6.674.562.45.844 1.127.844 2.03 0 1.266-.642 2.121-1.925 2.567l2.599 4.301h-1.316l-2.318-3.98h-1.996zm0-.956h1.526c.786 0 1.362-.154 1.728-.464.367-.315.55-.784.55-1.408 0-.633-.187-1.089-.563-1.368-.37-.28-.969-.42-1.793-.42H49.08v3.66zm19.507.138c0 1.532-.389 2.737-1.166 3.614-.772.877-1.848 1.316-3.227 1.316-1.41 0-2.499-.43-3.267-1.29-.764-.864-1.146-2.082-1.146-3.653 0-1.558.384-2.765 1.152-3.62.769-.86 1.86-1.29 3.274-1.29 1.375 0 2.449.436 3.221 1.309.773.873 1.159 2.077 1.159 3.614zm-7.628 0c0 1.296.275 2.28.825 2.953.555.667 1.358 1.001 2.41 1.001 1.06 0 1.861-.334 2.403-1.001.54-.668.811-1.652.811-2.953 0-1.288-.27-2.263-.811-2.927-.537-.667-1.334-1.001-2.39-1.001-1.06 0-1.868.336-2.422 1.008-.55.668-.825 1.641-.825 2.92zm19.861-1.984c0 .97-.332 1.715-.996 2.24-.659.519-1.604.778-2.835.778h-1.126v3.765H74.75v-9.572h2.482c2.391 0 3.587.93 3.587 2.79zm-4.957 2.063h1.002c.986 0 1.7-.16 2.14-.478.442-.32.662-.83.662-1.532 0-.633-.207-1.105-.622-1.415-.415-.31-1.06-.464-1.938-.464h-1.244v3.889zm19.297-.079c0 1.532-.388 2.737-1.165 3.614-.773.877-1.849 1.316-3.228 1.316-1.41 0-2.499-.43-3.267-1.29-.764-.864-1.146-2.082-1.146-3.653 0-1.558.384-2.765 1.153-3.62.768-.86 1.859-1.29 3.273-1.29 1.375 0 2.449.436 3.221 1.309.773.873 1.159 2.077 1.159 3.614zm-7.627 0c0 1.296.275 2.28.825 2.953.554.667 1.357 1.001 2.409 1.001 1.06 0 1.862-.334 2.403-1.001.54-.668.811-1.652.811-2.953 0-1.288-.27-2.263-.811-2.927-.537-.667-1.334-1.001-2.39-1.001-1.06 0-1.868.336-2.422 1.008-.55.668-.825 1.641-.825 2.92zm13.79 4.799v-9.572h1.113v8.564h4.223v1.008h-5.336zM6.01 0l1.478 3.553 3.836.307-2.922 2.504.892 3.743L6.011 8.1l-3.284 2.006.893-3.743L.697 3.86l3.836-.307L6.01 0zm26.816 0l1.478 3.553 3.835.307-2.922 2.504.893 3.743L32.826 8.1l-3.284 2.006.893-3.743-2.922-2.504 3.835-.307L32.826 0zM19.418 0l1.478 3.553 3.835.307-2.922 2.504.893 3.743L19.418 8.1l-3.284 2.006.893-3.743-2.923-2.504 3.836-.307L19.418 0zm26.82 0l1.478 3.553 3.836.307-2.923 2.504.893 3.743L46.238 8.1l-3.284 2.006.893-3.743-2.922-2.504 3.835-.307L46.238 0z" fill="#C6AF66"/></svg>