<svg width="24" height="24" fill="none" xmlns="http://www.w3.org/2000/svg"><path fill-rule="evenodd" clip-rule="evenodd" d="M12 4a6.04 6.04 0 00-4.247 1.739A5.885 5.885 0 006 9.923c0 2.752 1.558 5.29 3.251 7.215A21.658 21.658 0 0012 19.748a21.658 21.658 0 002.749-2.61C16.442 15.212 18 12.675 18 9.923c0-1.567-.63-3.073-1.753-4.184A6.04 6.04 0 0012 4zm0 17l-.57.822-.002-.002-.006-.004-.02-.013-.066-.048a20.59 20.59 0 01-1.073-.844 23.65 23.65 0 01-2.514-2.453C5.942 16.403 4 13.402 4 9.923c0-2.105.846-4.121 2.347-5.606A8.04 8.04 0 0112 2a8.04 8.04 0 015.653 2.317A7.885 7.885 0 0120 9.923c0 3.48-1.942 6.48-3.749 8.535a23.647 23.647 0 01-3.347 3.12 13.43 13.43 0 01-.24.177l-.067.048-.019.013-.006.004-.002.001L12 21zm0 0l.57.822a1 1 0 01-1.14 0L12 21zm0-13a1 1 0 100 2 1 1 0 000-2zM9 9a3 3 0 116 0 3 3 0 01-6 0z" fill="#C6AF66"/></svg>