<svg width="24" height="24" fill="none" xmlns="http://www.w3.org/2000/svg"><path d="M7.426 13.655L3.36 12.33s-.485-.197-.329-.644c.032-.092.097-.17.292-.305.9-.628 16.671-6.296 16.671-6.296s.445-.15.708-.05a.384.384 0 01.262.284c.028.118.04.239.035.36-.001.104-.014.2-.024.352-.096 1.55-2.97 13.116-2.97 13.116s-.172.677-.788.7a1.13 1.13 0 01-.823-.318c-1.209-1.04-5.388-3.848-6.311-4.466a.176.176 0 01-.076-.125c-.013-.065.058-.146.058-.146s7.277-6.468 7.47-7.147c.015-.053-.041-.079-.117-.056-.484.178-8.862 5.47-9.787 6.053a.445.445 0 01-.205.013z" fill="#fff"/></svg>