<svg width="24" height="24" fill="none" xmlns="http://www.w3.org/2000/svg"><path d="M6.948 8.062c.502 1.234 1.14 2.398 1.978 3.443.111.139.252.262.4.363.215.147.419.096.506-.15.093-.258.178-.78.183-1.05a22.61 22.61 0 00-.04-1.877c-.025-.452-.186-.85-.855-.969-.207-.037-.226-.206-.093-.375.276-.351.661-.407 1.078-.43.677-.036 1.355-.006 2.033 0 .276.003.553.025.825.084.354.077.544.324.602.668.03.178.046.36.042.54-.018.772-.055 1.543-.064 2.314-.004.303.018.613.083.908.091.41.373.514.66.217.366-.377.688-.801.99-1.232.549-.784.959-1.644 1.312-2.531.183-.458.322-.557.817-.558.93-.002 1.861-.003 2.791 0 .165 0 .338.016.494.065.252.08.353.285.293.546-.138.61-.469 1.127-.824 1.626-.569.799-1.165 1.579-1.748 2.37-.074.1-.14.207-.2.316-.219.392-.203.611.114.937.506.52 1.048 1.005 1.538 1.538.356.388.685.81.967 1.252.357.56.137 1.088-.53 1.182-.42.06-2.468 0-2.574 0a2.01 2.01 0 01-1.422-.564c-.432-.414-.825-.869-1.24-1.3a3.464 3.464 0 00-.403-.365c-.34-.258-.673-.2-.832.196-.136.341-.253 1.236-.258 1.312-.029.4-.284.655-.734.68-1.3.07-2.559-.075-3.732-.7-.994-.53-1.788-1.278-2.475-2.151-1.093-1.387-1.955-2.912-2.743-4.48-.04-.081-.838-1.77-.86-1.85-.071-.267-.005-.522.222-.61.142-.054 2.772 0 2.816.003.42.022.706.198.883.632z" fill="#fff"/></svg>