<svg width="24" height="24" fill="none" xmlns="http://www.w3.org/2000/svg"><path d="M22 11.707c0 5.342-4.365 9.707-9.837 9.707a9.945 9.945 0 01-4.756-1.238L2 22l1.759-5.212c-.912-1.498-1.433-3.192-1.433-5.016C2.39 6.365 6.756 2 12.163 2S22 6.365 22 11.707zm-9.837-8.143c-4.56 0-8.209 3.648-8.209 8.143a8.35 8.35 0 001.564 4.82L4.476 19.59l3.192-.978a8.352 8.352 0 004.56 1.369c4.56 0 8.274-3.649 8.274-8.209-.066-4.56-3.779-8.208-8.34-8.208zm4.951 10.423c-.065-.13-.195-.13-.456-.26-.26-.13-1.433-.717-1.629-.782-.195-.066-.39-.13-.52.13-.131.26-.652.782-.783.912-.13.13-.26.195-.52.065-.261-.13-1.043-.39-1.955-1.172-.717-.652-1.173-1.434-1.368-1.63-.13-.26 0-.39.13-.455l.39-.391c.131-.13.131-.26.261-.391.066-.13.066-.326 0-.39-.065-.131-.52-1.304-.716-1.76-.196-.456-.391-.39-.521-.39H8.97c-.13 0-.391.064-.652.325-.26.26-.847.847-.847 2.02 0 1.172.847 2.28.978 2.475.13.13 1.693 2.671 4.104 3.583 2.475.977 2.475.652 2.866.587.456-.066 1.433-.587 1.629-1.108.13-.782.13-1.303.065-1.368z" fill="#fff"/></svg>